# xmcd
#
# Track frame offsets: 
#        150
#        16482
#        38145
#        55816
#        81772
#        108283
#        134705
#        154792
#        173116
#        204349
#        225267
#        244593
#        265089
#
# Disc length: 3884 seconds
#
# Revision: 0
# Processed by: cddbd v1.5.2PL0 Copyright (c) Steve Scherf et al.
# Submitted via: ExactAudioCopy v1.1
#
DISCID=9f0f2a0d
DTITLE=Clay Walker Band - Unleashed
DYEAR=2014
DGENRE=Blues
TTITLE0=Coming Clean
TTITLE1=Buffalo Bayou
TTITLE2=Good Day for The Blues
TTITLE3=Too Many Days Ago
TTITLE4=Fall From The Ground
TTITLE5=Blues Deluxe
TTITLE6=Need You Tonight
TTITLE7=DIY
TTITLE8=Into The Darkness
TTITLE9=Who Will
TTITLE10=The Night
TTITLE11=Blues Is Here To Stay
TTITLE12=STB
EXTD=
EXTT0=
EXTT1=
EXTT2=
EXTT3=
EXTT4=
EXTT5=
EXTT6=
EXTT7=
EXTT8=
EXTT9=
EXTT10=
EXTT11=
EXTT12=
PLAYORDER=
